<?xml version="1.0" standalone="no"?><svg xmlns="http://www.w3.org/2000/svg" viewBox="0 0 1440 320"><path fill="#eee" fill-opacity="1" d="M0,288L26.7,256C53.3,224,107,160,160,128C213.3,96,267,96,320,101.3C373.3,107,427,117,480,122.7C533.3,128,587,128,640,138.7C693.3,149,747,171,800,154.7C853.3,139,907,85,960,64C1013.3,43,1067,53,1120,74.7C1173.3,96,1227,128,1280,122.7C1333.3,117,1387,75,1413,53.3L1440,32L1440,320L1413.3,320C1386.7,320,1333,320,1280,320C1226.7,320,1173,320,1120,320C1066.7,320,1013,320,960,320C906.7,320,853,320,800,320C746.7,320,693,320,640,320C586.7,320,533,320,480,320C426.7,320,373,320,320,320C266.7,320,213,320,160,320C106.7,320,53,320,27,320L0,320Z"></path></svg>