<?xml version="1.0" standalone="no"?><svg xmlns="http://www.w3.org/2000/svg" viewBox="0 0 1440 320"><path fill="#eee" fill-opacity="1" d="M0,96L24,128C48,160,96,224,144,234.7C192,245,240,203,288,170.7C336,139,384,117,432,128C480,139,528,181,576,176C624,171,672,117,720,85.3C768,53,816,43,864,80C912,117,960,203,1008,218.7C1056,235,1104,181,1152,160C1200,139,1248,149,1296,128C1344,107,1392,53,1416,26.7L1440,0L1440,0L1416,0C1392,0,1344,0,1296,0C1248,0,1200,0,1152,0C1104,0,1056,0,1008,0C960,0,912,0,864,0C816,0,768,0,720,0C672,0,624,0,576,0C528,0,480,0,432,0C384,0,336,0,288,0C240,0,192,0,144,0C96,0,48,0,24,0L0,0Z"></path></svg>